<?xml version="1.0" encoding="utf-8" standalone="no"?>
<!DOCTYPE svg PUBLIC "-//W3C//DTD SVG 1.1//EN"
  "http://www.w3.org/Graphics/SVG/1.1/DTD/svg11.dtd">
<svg xmlns:xlink="http://www.w3.org/1999/xlink" width="720pt" height="504pt" viewBox="0 0 720 504" xmlns="http://www.w3.org/2000/svg" version="1.1">
 <metadata>
  <rdf:RDF xmlns:dc="http://purl.org/dc/elements/1.1/" xmlns:cc="http://creativecommons.org/ns#" xmlns:rdf="http://www.w3.org/1999/02/22-rdf-syntax-ns#">
   <cc:Work>
    <dc:type rdf:resource="http://purl.org/dc/dcmitype/StillImage"/>
    <dc:date>2023-03-21T20:22:17.851363</dc:date>
    <dc:format>image/svg+xml</dc:format>
    <dc:creator>
     <cc:Agent>
      <dc:title>Matplotlib v3.5.2, https://matplotlib.org/</dc:title>
     </cc:Agent>
    </dc:creator>
   </cc:Work>
  </rdf:RDF>
 </metadata>
 <defs>
  <style type="text/css">*{stroke-linejoin: round; stroke-linecap: butt}</style>
 </defs>
 <g id="figure_1">
  <g id="patch_1">
   <path d="M 0 504 
L 720 504 
L 720 0 
L 0 0 
z
" style="fill: #ffffff"/>
  </g>
  <g id="axes_1">
   <g id="patch_2">
    <path d="M 90 448.56 
L 648 448.56 
L 648 60.48 
L 90 60.48 
z
" style="fill: #ffffff"/>
   </g>
   <g id="matplotlib.axis_1">
    <g id="xtick_1">
     <g id="line2d_1">
      <path d="M 149.029053 448.56 
L 149.029053 60.48 
" clip-path="url(#p09140c557d)" style="fill: none; stroke: #b0b0b0; stroke-width: 0.8; stroke-linecap: square"/>
     </g>
     <g id="line2d_2">
      <defs>
       <path id="me1def398ed" d="M 0 0 
L 0 3.5 
" style="stroke: #000000; stroke-width: 0.8"/>
      </defs>
      <g>
       <use xlink:href="#me1def398ed" x="149.029053" y="448.56" style="stroke: #000000; stroke-width: 0.8"/>
      </g>
     </g>
     <g id="text_1">
      <!-- 10 -->
      <g transform="translate(142.666553 463.158437)scale(0.1 -0.1)">
       <defs>
        <path id="DejaVuSans-31" d="M 794 531 
L 1825 531 
L 1825 4091 
L 703 3866 
L 703 4441 
L 1819 4666 
L 2450 4666 
L 2450 531 
L 3481 531 
L 3481 0 
L 794 0 
L 794 531 
z
" transform="scale(0.015625)"/>
        <path id="DejaVuSans-30" d="M 2034 4250 
Q 1547 4250 1301 3770 
Q 1056 3291 1056 2328 
Q 1056 1369 1301 889 
Q 1547 409 2034 409 
Q 2525 409 2770 889 
Q 3016 1369 3016 2328 
Q 3016 3291 2770 3770 
Q 2525 4250 2034 4250 
z
M 2034 4750 
Q 2819 4750 3233 4129 
Q 3647 3509 3647 2328 
Q 3647 1150 3233 529 
Q 2819 -91 2034 -91 
Q 1250 -91 836 529 
Q 422 1150 422 2328 
Q 422 3509 836 4129 
Q 1250 4750 2034 4750 
z
" transform="scale(0.015625)"/>
       </defs>
       <use xlink:href="#DejaVuSans-31"/>
       <use xlink:href="#DejaVuSans-30" x="63.623047"/>
      </g>
     </g>
    </g>
    <g id="xtick_2">
     <g id="line2d_3">
      <path d="M 216.712661 448.56 
L 216.712661 60.48 
" clip-path="url(#p09140c557d)" style="fill: none; stroke: #b0b0b0; stroke-width: 0.8; stroke-linecap: square"/>
     </g>
     <g id="line2d_4">
      <g>
       <use xlink:href="#me1def398ed" x="216.712661" y="448.56" style="stroke: #000000; stroke-width: 0.8"/>
      </g>
     </g>
     <g id="text_2">
      <!-- 20 -->
      <g transform="translate(210.350161 463.158437)scale(0.1 -0.1)">
       <defs>
        <path id="DejaVuSans-32" d="M 1228 531 
L 3431 531 
L 3431 0 
L 469 0 
L 469 531 
Q 828 903 1448 1529 
Q 2069 2156 2228 2338 
Q 2531 2678 2651 2914 
Q 2772 3150 2772 3378 
Q 2772 3750 2511 3984 
Q 2250 4219 1831 4219 
Q 1534 4219 1204 4116 
Q 875 4013 500 3803 
L 500 4441 
Q 881 4594 1212 4672 
Q 1544 4750 1819 4750 
Q 2544 4750 2975 4387 
Q 3406 4025 3406 3419 
Q 3406 3131 3298 2873 
Q 3191 2616 2906 2266 
Q 2828 2175 2409 1742 
Q 1991 1309 1228 531 
z
" transform="scale(0.015625)"/>
       </defs>
       <use xlink:href="#DejaVuSans-32"/>
       <use xlink:href="#DejaVuSans-30" x="63.623047"/>
      </g>
     </g>
    </g>
    <g id="xtick_3">
     <g id="line2d_5">
      <path d="M 284.396269 448.56 
L 284.396269 60.48 
" clip-path="url(#p09140c557d)" style="fill: none; stroke: #b0b0b0; stroke-width: 0.8; stroke-linecap: square"/>
     </g>
     <g id="line2d_6">
      <g>
       <use xlink:href="#me1def398ed" x="284.396269" y="448.56" style="stroke: #000000; stroke-width: 0.8"/>
      </g>
     </g>
     <g id="text_3">
      <!-- 30 -->
      <g transform="translate(278.033769 463.158437)scale(0.1 -0.1)">
       <defs>
        <path id="DejaVuSans-33" d="M 2597 2516 
Q 3050 2419 3304 2112 
Q 3559 1806 3559 1356 
Q 3559 666 3084 287 
Q 2609 -91 1734 -91 
Q 1441 -91 1130 -33 
Q 819 25 488 141 
L 488 750 
Q 750 597 1062 519 
Q 1375 441 1716 441 
Q 2309 441 2620 675 
Q 2931 909 2931 1356 
Q 2931 1769 2642 2001 
Q 2353 2234 1838 2234 
L 1294 2234 
L 1294 2753 
L 1863 2753 
Q 2328 2753 2575 2939 
Q 2822 3125 2822 3475 
Q 2822 3834 2567 4026 
Q 2313 4219 1838 4219 
Q 1578 4219 1281 4162 
Q 984 4106 628 3988 
L 628 4550 
Q 988 4650 1302 4700 
Q 1616 4750 1894 4750 
Q 2613 4750 3031 4423 
Q 3450 4097 3450 3541 
Q 3450 3153 3228 2886 
Q 3006 2619 2597 2516 
z
" transform="scale(0.015625)"/>
       </defs>
       <use xlink:href="#DejaVuSans-33"/>
       <use xlink:href="#DejaVuSans-30" x="63.623047"/>
      </g>
     </g>
    </g>
    <g id="xtick_4">
     <g id="line2d_7">
      <path d="M 352.079877 448.56 
L 352.079877 60.48 
" clip-path="url(#p09140c557d)" style="fill: none; stroke: #b0b0b0; stroke-width: 0.8; stroke-linecap: square"/>
     </g>
     <g id="line2d_8">
      <g>
       <use xlink:href="#me1def398ed" x="352.079877" y="448.56" style="stroke: #000000; stroke-width: 0.8"/>
      </g>
     </g>
     <g id="text_4">
      <!-- 40 -->
      <g transform="translate(345.717377 463.158437)scale(0.1 -0.1)">
       <defs>
        <path id="DejaVuSans-34" d="M 2419 4116 
L 825 1625 
L 2419 1625 
L 2419 4116 
z
M 2253 4666 
L 3047 4666 
L 3047 1625 
L 3713 1625 
L 3713 1100 
L 3047 1100 
L 3047 0 
L 2419 0 
L 2419 1100 
L 313 1100 
L 313 1709 
L 2253 4666 
z
" transform="scale(0.015625)"/>
       </defs>
       <use xlink:href="#DejaVuSans-34"/>
       <use xlink:href="#DejaVuSans-30" x="63.623047"/>
      </g>
     </g>
    </g>
    <g id="xtick_5">
     <g id="line2d_9">
      <path d="M 419.763485 448.56 
L 419.763485 60.48 
" clip-path="url(#p09140c557d)" style="fill: none; stroke: #b0b0b0; stroke-width: 0.8; stroke-linecap: square"/>
     </g>
     <g id="line2d_10">
      <g>
       <use xlink:href="#me1def398ed" x="419.763485" y="448.56" style="stroke: #000000; stroke-width: 0.8"/>
      </g>
     </g>
     <g id="text_5">
      <!-- 50 -->
      <g transform="translate(413.400985 463.158437)scale(0.1 -0.1)">
       <defs>
        <path id="DejaVuSans-35" d="M 691 4666 
L 3169 4666 
L 3169 4134 
L 1269 4134 
L 1269 2991 
Q 1406 3038 1543 3061 
Q 1681 3084 1819 3084 
Q 2600 3084 3056 2656 
Q 3513 2228 3513 1497 
Q 3513 744 3044 326 
Q 2575 -91 1722 -91 
Q 1428 -91 1123 -41 
Q 819 9 494 109 
L 494 744 
Q 775 591 1075 516 
Q 1375 441 1709 441 
Q 2250 441 2565 725 
Q 2881 1009 2881 1497 
Q 2881 1984 2565 2268 
Q 2250 2553 1709 2553 
Q 1456 2553 1204 2497 
Q 953 2441 691 2322 
L 691 4666 
z
" transform="scale(0.015625)"/>
       </defs>
       <use xlink:href="#DejaVuSans-35"/>
       <use xlink:href="#DejaVuSans-30" x="63.623047"/>
      </g>
     </g>
    </g>
    <g id="xtick_6">
     <g id="line2d_11">
      <path d="M 487.447093 448.56 
L 487.447093 60.48 
" clip-path="url(#p09140c557d)" style="fill: none; stroke: #b0b0b0; stroke-width: 0.8; stroke-linecap: square"/>
     </g>
     <g id="line2d_12">
      <g>
       <use xlink:href="#me1def398ed" x="487.447093" y="448.56" style="stroke: #000000; stroke-width: 0.8"/>
      </g>
     </g>
     <g id="text_6">
      <!-- 60 -->
      <g transform="translate(481.084593 463.158437)scale(0.1 -0.1)">
       <defs>
        <path id="DejaVuSans-36" d="M 2113 2584 
Q 1688 2584 1439 2293 
Q 1191 2003 1191 1497 
Q 1191 994 1439 701 
Q 1688 409 2113 409 
Q 2538 409 2786 701 
Q 3034 994 3034 1497 
Q 3034 2003 2786 2293 
Q 2538 2584 2113 2584 
z
M 3366 4563 
L 3366 3988 
Q 3128 4100 2886 4159 
Q 2644 4219 2406 4219 
Q 1781 4219 1451 3797 
Q 1122 3375 1075 2522 
Q 1259 2794 1537 2939 
Q 1816 3084 2150 3084 
Q 2853 3084 3261 2657 
Q 3669 2231 3669 1497 
Q 3669 778 3244 343 
Q 2819 -91 2113 -91 
Q 1303 -91 875 529 
Q 447 1150 447 2328 
Q 447 3434 972 4092 
Q 1497 4750 2381 4750 
Q 2619 4750 2861 4703 
Q 3103 4656 3366 4563 
z
" transform="scale(0.015625)"/>
       </defs>
       <use xlink:href="#DejaVuSans-36"/>
       <use xlink:href="#DejaVuSans-30" x="63.623047"/>
      </g>
     </g>
    </g>
    <g id="xtick_7">
     <g id="line2d_13">
      <path d="M 555.130701 448.56 
L 555.130701 60.48 
" clip-path="url(#p09140c557d)" style="fill: none; stroke: #b0b0b0; stroke-width: 0.8; stroke-linecap: square"/>
     </g>
     <g id="line2d_14">
      <g>
       <use xlink:href="#me1def398ed" x="555.130701" y="448.56" style="stroke: #000000; stroke-width: 0.8"/>
      </g>
     </g>
     <g id="text_7">
      <!-- 70 -->
      <g transform="translate(548.768201 463.158437)scale(0.1 -0.1)">
       <defs>
        <path id="DejaVuSans-37" d="M 525 4666 
L 3525 4666 
L 3525 4397 
L 1831 0 
L 1172 0 
L 2766 4134 
L 525 4134 
L 525 4666 
z
" transform="scale(0.015625)"/>
       </defs>
       <use xlink:href="#DejaVuSans-37"/>
       <use xlink:href="#DejaVuSans-30" x="63.623047"/>
      </g>
     </g>
    </g>
    <g id="xtick_8">
     <g id="line2d_15">
      <path d="M 622.81431 448.56 
L 622.81431 60.48 
" clip-path="url(#p09140c557d)" style="fill: none; stroke: #b0b0b0; stroke-width: 0.8; stroke-linecap: square"/>
     </g>
     <g id="line2d_16">
      <g>
       <use xlink:href="#me1def398ed" x="622.81431" y="448.56" style="stroke: #000000; stroke-width: 0.8"/>
      </g>
     </g>
     <g id="text_8">
      <!-- 80 -->
      <g transform="translate(616.45181 463.158437)scale(0.1 -0.1)">
       <defs>
        <path id="DejaVuSans-38" d="M 2034 2216 
Q 1584 2216 1326 1975 
Q 1069 1734 1069 1313 
Q 1069 891 1326 650 
Q 1584 409 2034 409 
Q 2484 409 2743 651 
Q 3003 894 3003 1313 
Q 3003 1734 2745 1975 
Q 2488 2216 2034 2216 
z
M 1403 2484 
Q 997 2584 770 2862 
Q 544 3141 544 3541 
Q 544 4100 942 4425 
Q 1341 4750 2034 4750 
Q 2731 4750 3128 4425 
Q 3525 4100 3525 3541 
Q 3525 3141 3298 2862 
Q 3072 2584 2669 2484 
Q 3125 2378 3379 2068 
Q 3634 1759 3634 1313 
Q 3634 634 3220 271 
Q 2806 -91 2034 -91 
Q 1263 -91 848 271 
Q 434 634 434 1313 
Q 434 1759 690 2068 
Q 947 2378 1403 2484 
z
M 1172 3481 
Q 1172 3119 1398 2916 
Q 1625 2713 2034 2713 
Q 2441 2713 2670 2916 
Q 2900 3119 2900 3481 
Q 2900 3844 2670 4047 
Q 2441 4250 2034 4250 
Q 1625 4250 1398 4047 
Q 1172 3844 1172 3481 
z
" transform="scale(0.015625)"/>
       </defs>
       <use xlink:href="#DejaVuSans-38"/>
       <use xlink:href="#DejaVuSans-30" x="63.623047"/>
      </g>
     </g>
    </g>
    <g id="text_9">
     <!-- Angulo -->
     <g transform="translate(351.619531 476.836563)scale(0.1 -0.1)">
      <defs>
       <path id="DejaVuSans-41" d="M 2188 4044 
L 1331 1722 
L 3047 1722 
L 2188 4044 
z
M 1831 4666 
L 2547 4666 
L 4325 0 
L 3669 0 
L 3244 1197 
L 1141 1197 
L 716 0 
L 50 0 
L 1831 4666 
z
" transform="scale(0.015625)"/>
       <path id="DejaVuSans-6e" d="M 3513 2113 
L 3513 0 
L 2938 0 
L 2938 2094 
Q 2938 2591 2744 2837 
Q 2550 3084 2163 3084 
Q 1697 3084 1428 2787 
Q 1159 2491 1159 1978 
L 1159 0 
L 581 0 
L 581 3500 
L 1159 3500 
L 1159 2956 
Q 1366 3272 1645 3428 
Q 1925 3584 2291 3584 
Q 2894 3584 3203 3211 
Q 3513 2838 3513 2113 
z
" transform="scale(0.015625)"/>
       <path id="DejaVuSans-67" d="M 2906 1791 
Q 2906 2416 2648 2759 
Q 2391 3103 1925 3103 
Q 1463 3103 1205 2759 
Q 947 2416 947 1791 
Q 947 1169 1205 825 
Q 1463 481 1925 481 
Q 2391 481 2648 825 
Q 2906 1169 2906 1791 
z
M 3481 434 
Q 3481 -459 3084 -895 
Q 2688 -1331 1869 -1331 
Q 1566 -1331 1297 -1286 
Q 1028 -1241 775 -1147 
L 775 -588 
Q 1028 -725 1275 -790 
Q 1522 -856 1778 -856 
Q 2344 -856 2625 -561 
Q 2906 -266 2906 331 
L 2906 616 
Q 2728 306 2450 153 
Q 2172 0 1784 0 
Q 1141 0 747 490 
Q 353 981 353 1791 
Q 353 2603 747 3093 
Q 1141 3584 1784 3584 
Q 2172 3584 2450 3431 
Q 2728 3278 2906 2969 
L 2906 3500 
L 3481 3500 
L 3481 434 
z
" transform="scale(0.015625)"/>
       <path id="DejaVuSans-75" d="M 544 1381 
L 544 3500 
L 1119 3500 
L 1119 1403 
Q 1119 906 1312 657 
Q 1506 409 1894 409 
Q 2359 409 2629 706 
Q 2900 1003 2900 1516 
L 2900 3500 
L 3475 3500 
L 3475 0 
L 2900 0 
L 2900 538 
Q 2691 219 2414 64 
Q 2138 -91 1772 -91 
Q 1169 -91 856 284 
Q 544 659 544 1381 
z
M 1991 3584 
L 1991 3584 
z
" transform="scale(0.015625)"/>
       <path id="DejaVuSans-6c" d="M 603 4863 
L 1178 4863 
L 1178 0 
L 603 0 
L 603 4863 
z
" transform="scale(0.015625)"/>
       <path id="DejaVuSans-6f" d="M 1959 3097 
Q 1497 3097 1228 2736 
Q 959 2375 959 1747 
Q 959 1119 1226 758 
Q 1494 397 1959 397 
Q 2419 397 2687 759 
Q 2956 1122 2956 1747 
Q 2956 2369 2687 2733 
Q 2419 3097 1959 3097 
z
M 1959 3584 
Q 2709 3584 3137 3096 
Q 3566 2609 3566 1747 
Q 3566 888 3137 398 
Q 2709 -91 1959 -91 
Q 1206 -91 779 398 
Q 353 888 353 1747 
Q 353 2609 779 3096 
Q 1206 3584 1959 3584 
z
" transform="scale(0.015625)"/>
      </defs>
      <use xlink:href="#DejaVuSans-41"/>
      <use xlink:href="#DejaVuSans-6e" x="68.408203"/>
      <use xlink:href="#DejaVuSans-67" x="131.787109"/>
      <use xlink:href="#DejaVuSans-75" x="195.263672"/>
      <use xlink:href="#DejaVuSans-6c" x="258.642578"/>
      <use xlink:href="#DejaVuSans-6f" x="286.425781"/>
     </g>
    </g>
   </g>
   <g id="matplotlib.axis_2">
    <g id="ytick_1">
     <g id="line2d_17">
      <path d="M 90 377.891732 
L 648 377.891732 
" clip-path="url(#p09140c557d)" style="fill: none; stroke: #b0b0b0; stroke-width: 0.8; stroke-linecap: square"/>
     </g>
     <g id="line2d_18">
      <defs>
       <path id="m64b23cc8b0" d="M 0 0 
L -3.5 0 
" style="stroke: #000000; stroke-width: 0.8"/>
      </defs>
      <g>
       <use xlink:href="#m64b23cc8b0" x="90" y="377.891732" style="stroke: #000000; stroke-width: 0.8"/>
      </g>
     </g>
     <g id="text_10">
      <!-- 5000 -->
      <g transform="translate(57.55 381.690951)scale(0.1 -0.1)">
       <use xlink:href="#DejaVuSans-35"/>
       <use xlink:href="#DejaVuSans-30" x="63.623047"/>
       <use xlink:href="#DejaVuSans-30" x="127.246094"/>
       <use xlink:href="#DejaVuSans-30" x="190.869141"/>
      </g>
     </g>
    </g>
    <g id="ytick_2">
     <g id="line2d_19">
      <path d="M 90 301.10594 
L 648 301.10594 
" clip-path="url(#p09140c557d)" style="fill: none; stroke: #b0b0b0; stroke-width: 0.8; stroke-linecap: square"/>
     </g>
     <g id="line2d_20">
      <g>
       <use xlink:href="#m64b23cc8b0" x="90" y="301.10594" style="stroke: #000000; stroke-width: 0.8"/>
      </g>
     </g>
     <g id="text_11">
      <!-- 10000 -->
      <g transform="translate(51.1875 304.905159)scale(0.1 -0.1)">
       <use xlink:href="#DejaVuSans-31"/>
       <use xlink:href="#DejaVuSans-30" x="63.623047"/>
       <use xlink:href="#DejaVuSans-30" x="127.246094"/>
       <use xlink:href="#DejaVuSans-30" x="190.869141"/>
       <use xlink:href="#DejaVuSans-30" x="254.492188"/>
      </g>
     </g>
    </g>
    <g id="ytick_3">
     <g id="line2d_21">
      <path d="M 90 224.320148 
L 648 224.320148 
" clip-path="url(#p09140c557d)" style="fill: none; stroke: #b0b0b0; stroke-width: 0.8; stroke-linecap: square"/>
     </g>
     <g id="line2d_22">
      <g>
       <use xlink:href="#m64b23cc8b0" x="90" y="224.320148" style="stroke: #000000; stroke-width: 0.8"/>
      </g>
     </g>
     <g id="text_12">
      <!-- 15000 -->
      <g transform="translate(51.1875 228.119367)scale(0.1 -0.1)">
       <use xlink:href="#DejaVuSans-31"/>
       <use xlink:href="#DejaVuSans-35" x="63.623047"/>
       <use xlink:href="#DejaVuSans-30" x="127.246094"/>
       <use xlink:href="#DejaVuSans-30" x="190.869141"/>
       <use xlink:href="#DejaVuSans-30" x="254.492188"/>
      </g>
     </g>
    </g>
    <g id="ytick_4">
     <g id="line2d_23">
      <path d="M 90 147.534356 
L 648 147.534356 
" clip-path="url(#p09140c557d)" style="fill: none; stroke: #b0b0b0; stroke-width: 0.8; stroke-linecap: square"/>
     </g>
     <g id="line2d_24">
      <g>
       <use xlink:href="#m64b23cc8b0" x="90" y="147.534356" style="stroke: #000000; stroke-width: 0.8"/>
      </g>
     </g>
     <g id="text_13">
      <!-- 20000 -->
      <g transform="translate(51.1875 151.333575)scale(0.1 -0.1)">
       <use xlink:href="#DejaVuSans-32"/>
       <use xlink:href="#DejaVuSans-30" x="63.623047"/>
       <use xlink:href="#DejaVuSans-30" x="127.246094"/>
       <use xlink:href="#DejaVuSans-30" x="190.869141"/>
       <use xlink:href="#DejaVuSans-30" x="254.492188"/>
      </g>
     </g>
    </g>
    <g id="ytick_5">
     <g id="line2d_25">
      <path d="M 90 70.748564 
L 648 70.748564 
" clip-path="url(#p09140c557d)" style="fill: none; stroke: #b0b0b0; stroke-width: 0.8; stroke-linecap: square"/>
     </g>
     <g id="line2d_26">
      <g>
       <use xlink:href="#m64b23cc8b0" x="90" y="70.748564" style="stroke: #000000; stroke-width: 0.8"/>
      </g>
     </g>
     <g id="text_14">
      <!-- 25000 -->
      <g transform="translate(51.1875 74.547783)scale(0.1 -0.1)">
       <use xlink:href="#DejaVuSans-32"/>
       <use xlink:href="#DejaVuSans-35" x="63.623047"/>
       <use xlink:href="#DejaVuSans-30" x="127.246094"/>
       <use xlink:href="#DejaVuSans-30" x="190.869141"/>
       <use xlink:href="#DejaVuSans-30" x="254.492188"/>
      </g>
     </g>
    </g>
    <g id="text_15">
     <!-- Intensidad -->
     <g transform="translate(45.107812 280.775469)rotate(-90)scale(0.1 -0.1)">
      <defs>
       <path id="DejaVuSans-49" d="M 628 4666 
L 1259 4666 
L 1259 0 
L 628 0 
L 628 4666 
z
" transform="scale(0.015625)"/>
       <path id="DejaVuSans-74" d="M 1172 4494 
L 1172 3500 
L 2356 3500 
L 2356 3053 
L 1172 3053 
L 1172 1153 
Q 1172 725 1289 603 
Q 1406 481 1766 481 
L 2356 481 
L 2356 0 
L 1766 0 
Q 1100 0 847 248 
Q 594 497 594 1153 
L 594 3053 
L 172 3053 
L 172 3500 
L 594 3500 
L 594 4494 
L 1172 4494 
z
" transform="scale(0.015625)"/>
       <path id="DejaVuSans-65" d="M 3597 1894 
L 3597 1613 
L 953 1613 
Q 991 1019 1311 708 
Q 1631 397 2203 397 
Q 2534 397 2845 478 
Q 3156 559 3463 722 
L 3463 178 
Q 3153 47 2828 -22 
Q 2503 -91 2169 -91 
Q 1331 -91 842 396 
Q 353 884 353 1716 
Q 353 2575 817 3079 
Q 1281 3584 2069 3584 
Q 2775 3584 3186 3129 
Q 3597 2675 3597 1894 
z
M 3022 2063 
Q 3016 2534 2758 2815 
Q 2500 3097 2075 3097 
Q 1594 3097 1305 2825 
Q 1016 2553 972 2059 
L 3022 2063 
z
" transform="scale(0.015625)"/>
       <path id="DejaVuSans-73" d="M 2834 3397 
L 2834 2853 
Q 2591 2978 2328 3040 
Q 2066 3103 1784 3103 
Q 1356 3103 1142 2972 
Q 928 2841 928 2578 
Q 928 2378 1081 2264 
Q 1234 2150 1697 2047 
L 1894 2003 
Q 2506 1872 2764 1633 
Q 3022 1394 3022 966 
Q 3022 478 2636 193 
Q 2250 -91 1575 -91 
Q 1294 -91 989 -36 
Q 684 19 347 128 
L 347 722 
Q 666 556 975 473 
Q 1284 391 1588 391 
Q 1994 391 2212 530 
Q 2431 669 2431 922 
Q 2431 1156 2273 1281 
Q 2116 1406 1581 1522 
L 1381 1569 
Q 847 1681 609 1914 
Q 372 2147 372 2553 
Q 372 3047 722 3315 
Q 1072 3584 1716 3584 
Q 2034 3584 2315 3537 
Q 2597 3491 2834 3397 
z
" transform="scale(0.015625)"/>
       <path id="DejaVuSans-69" d="M 603 3500 
L 1178 3500 
L 1178 0 
L 603 0 
L 603 3500 
z
M 603 4863 
L 1178 4863 
L 1178 4134 
L 603 4134 
L 603 4863 
z
" transform="scale(0.015625)"/>
       <path id="DejaVuSans-64" d="M 2906 2969 
L 2906 4863 
L 3481 4863 
L 3481 0 
L 2906 0 
L 2906 525 
Q 2725 213 2448 61 
Q 2172 -91 1784 -91 
Q 1150 -91 751 415 
Q 353 922 353 1747 
Q 353 2572 751 3078 
Q 1150 3584 1784 3584 
Q 2172 3584 2448 3432 
Q 2725 3281 2906 2969 
z
M 947 1747 
Q 947 1113 1208 752 
Q 1469 391 1925 391 
Q 2381 391 2643 752 
Q 2906 1113 2906 1747 
Q 2906 2381 2643 2742 
Q 2381 3103 1925 3103 
Q 1469 3103 1208 2742 
Q 947 2381 947 1747 
z
" transform="scale(0.015625)"/>
       <path id="DejaVuSans-61" d="M 2194 1759 
Q 1497 1759 1228 1600 
Q 959 1441 959 1056 
Q 959 750 1161 570 
Q 1363 391 1709 391 
Q 2188 391 2477 730 
Q 2766 1069 2766 1631 
L 2766 1759 
L 2194 1759 
z
M 3341 1997 
L 3341 0 
L 2766 0 
L 2766 531 
Q 2569 213 2275 61 
Q 1981 -91 1556 -91 
Q 1019 -91 701 211 
Q 384 513 384 1019 
Q 384 1609 779 1909 
Q 1175 2209 1959 2209 
L 2766 2209 
L 2766 2266 
Q 2766 2663 2505 2880 
Q 2244 3097 1772 3097 
Q 1472 3097 1187 3025 
Q 903 2953 641 2809 
L 641 3341 
Q 956 3463 1253 3523 
Q 1550 3584 1831 3584 
Q 2591 3584 2966 3190 
Q 3341 2797 3341 1997 
z
" transform="scale(0.015625)"/>
      </defs>
      <use xlink:href="#DejaVuSans-49"/>
      <use xlink:href="#DejaVuSans-6e" x="29.492188"/>
      <use xlink:href="#DejaVuSans-74" x="92.871094"/>
      <use xlink:href="#DejaVuSans-65" x="132.080078"/>
      <use xlink:href="#DejaVuSans-6e" x="193.603516"/>
      <use xlink:href="#DejaVuSans-73" x="256.982422"/>
      <use xlink:href="#DejaVuSans-69" x="309.082031"/>
      <use xlink:href="#DejaVuSans-64" x="336.865234"/>
      <use xlink:href="#DejaVuSans-61" x="400.341797"/>
      <use xlink:href="#DejaVuSans-64" x="461.621094"/>
     </g>
    </g>
   </g>
   <g id="line2d_27">
    <path d="M 115.363636 377.953161 
L 115.719118 377.538517 
L 116.0746 378.76709 
L 116.430082 378.475304 
L 117.141046 380.318163 
L 117.496528 380.978521 
L 117.85201 382.790666 
L 118.207492 381.592807 
L 118.562974 383.727452 
L 118.918456 383.911738 
L 119.273938 383.389595 
L 119.62942 385.109596 
L 119.984902 383.988524 
L 120.340384 385.601026 
L 120.695865 388.242457 
L 121.051347 385.432097 
L 121.406829 385.432097 
L 121.762311 388.319243 
L 122.117793 388.488171 
L 122.473275 386.906384 
L 122.828757 387.397813 
L 123.184239 387.536028 
L 123.539721 388.042814 
L 123.895203 388.826029 
L 124.250685 386.860313 
L 124.606167 389.041029 
L 124.961649 386.87567 
L 125.317131 387.735671 
L 125.672613 386.138526 
L 126.028095 387.62817 
L 126.383576 387.536028 
L 126.739058 388.948886 
L 127.09454 386.230669 
L 127.450022 388.994958 
L 127.805504 388.749243 
L 128.160986 387.106027 
L 128.516468 388.795314 
L 128.87195 388.365314 
L 129.227432 388.902815 
L 129.582914 388.257814 
L 129.938396 389.286744 
L 130.293878 389.025672 
L 130.64936 387.075313 
L 131.004842 387.382456 
L 131.360324 389.424958 
L 131.715806 388.396028 
L 132.071288 388.181028 
L 132.426769 389.256029 
L 132.782251 388.595671 
L 133.137733 389.317458 
L 133.493215 388.5496 
L 133.848697 388.518886 
L 134.204179 390.284959 
L 134.559661 390.254245 
L 134.915143 388.703172 
L 135.270625 390.069959 
L 135.626107 389.225315 
L 135.981589 389.547815 
L 136.337071 390.192816 
L 136.692553 390.11603 
L 137.048035 389.363529 
L 137.403517 390.054601 
L 137.758999 389.087101 
L 138.11448 390.853174 
L 138.469962 389.68603 
L 138.825444 389.317458 
L 139.180926 391.743889 
L 139.536408 390.638174 
L 139.89189 390.43853 
L 140.247372 391.129603 
L 140.602854 390.131387 
L 140.958336 391.820675 
L 141.313818 392.38889 
L 141.6693 391.851389 
L 142.024782 389.870316 
L 142.380264 392.92639 
L 142.735746 392.742104 
L 143.091228 392.127818 
L 143.44671 392.81889 
L 143.802192 392.020318 
L 144.157673 392.81889 
L 144.513155 393.970677 
L 144.868637 392.696033 
L 145.224119 390.822459 
L 145.579601 392.680676 
L 145.935083 391.267817 
L 146.290565 393.156747 
L 146.646047 392.342818 
L 147.001529 393.540676 
L 147.357011 392.004961 
L 147.712493 394.231749 
L 148.067975 394.738535 
L 148.423457 392.92639 
L 148.778939 393.817105 
L 149.134421 395.383535 
L 149.489903 395.52175 
L 149.845384 394.677106 
L 150.200866 394.815321 
L 150.556348 394.569606 
L 150.91183 393.832462 
L 151.267312 396.028536 
L 151.622794 396.76568 
L 151.978276 394.723178 
L 152.333758 397.364609 
L 152.68924 395.506393 
L 153.044722 394.508177 
L 153.400204 394.784606 
L 153.755686 395.444964 
L 154.111168 395.168535 
L 154.46665 396.274251 
L 154.822132 395.675321 
L 155.177614 398.193895 
L 155.533095 396.642822 
L 155.888577 396.381751 
L 156.244059 398.43961 
L 156.599541 399.668183 
L 156.955023 397.733181 
L 157.310505 396.550679 
L 157.665987 399.053896 
L 158.021469 398.746753 
L 158.376951 397.318537 
L 158.732433 399.652825 
L 159.087915 399.238182 
L 159.443397 399.806397 
L 159.798879 397.318537 
L 160.154361 397.779252 
L 160.509843 399.437825 
L 160.865325 399.959969 
L 161.220807 398.854253 
L 161.576288 398.378181 
L 161.93177 400.973541 
L 162.287252 401.234613 
L 162.642734 399.668183 
L 162.998216 400.482112 
L 163.353698 399.115325 
L 163.70918 400.297826 
L 164.064662 400.942827 
L 164.420144 399.975326 
L 164.775626 401.326756 
L 165.131108 401.096398 
L 165.48659 400.067469 
L 165.842072 400.174969 
L 166.197554 400.11354 
L 166.553036 401.265327 
L 166.908518 400.635684 
L 167.263999 399.453182 
L 167.619481 403.461401 
L 167.974963 401.449613 
L 168.330445 401.46497 
L 168.685927 402.877829 
L 169.041409 401.557113 
L 169.396891 402.693543 
L 170.107855 401.587827 
L 170.463337 401.956399 
L 170.818819 403.184972 
L 171.174301 403.307829 
L 171.529783 402.478543 
L 171.885265 403.753187 
L 172.240747 403.891401 
L 172.596229 405.381046 
L 172.951711 403.983544 
L 173.662674 402.202114 
L 174.018156 402.954615 
L 174.373638 403.092829 
L 174.72912 402.6014 
L 175.440084 404.59783 
L 175.795566 401.726042 
L 176.151048 403.937473 
L 176.50653 405.104617 
L 176.862012 404.336759 
L 177.217494 406.624975 
L 177.572976 405.334974 
L 177.928458 405.258188 
L 178.28394 404.674616 
L 178.639422 404.720688 
L 178.994903 405.166045 
L 179.350385 404.613188 
L 179.705867 404.843545 
L 180.061349 404.812831 
L 180.772313 406.640333 
L 181.127795 406.271761 
L 181.483277 405.580689 
L 181.838759 404.38283 
L 182.194241 406.072118 
L 182.549723 406.287118 
L 182.905205 406.164261 
L 183.260687 406.686404 
L 183.616169 406.76319 
L 184.327133 408.191406 
L 184.682615 405.887832 
L 185.038096 407.08569 
L 185.393578 406.916761 
L 185.74906 408.575335 
L 186.104542 408.391049 
L 186.460024 405.396403 
L 186.815506 407.807477 
L 187.170988 408.529263 
L 187.52647 410.648551 
L 187.881952 408.237477 
L 188.237434 410.203193 
L 188.592916 408.821049 
L 188.948398 409.373907 
L 189.30388 409.128192 
L 189.659362 407.761405 
L 190.014844 410.049622 
L 190.370326 409.020692 
L 190.725807 409.880693 
L 191.436771 409.481407 
L 191.792253 409.481407 
L 192.147735 410.832837 
L 192.503217 408.206763 
L 193.214181 411.616052 
L 193.569663 410.786765 
L 193.925145 409.542836 
L 194.280627 409.865336 
L 194.636109 411.201409 
L 194.991591 409.604264 
L 195.347073 412.046052 
L 195.702555 409.542836 
L 196.058037 412.537481 
L 196.413519 411.293552 
L 196.769 411.093909 
L 197.124482 411.293552 
L 197.479964 412.337838 
L 197.835446 412.783196 
L 198.54641 411.493195 
L 198.901892 412.184267 
L 199.257374 413.796768 
L 199.612856 413.289982 
L 199.968338 412.399267 
L 200.32382 414.841055 
L 200.679302 413.443554 
L 201.034784 412.583553 
L 201.390266 414.180697 
L 201.745748 413.213196 
L 202.10123 413.719983 
L 202.456711 411.800338 
L 203.167675 413.443554 
L 203.523157 412.614267 
L 203.878639 413.382125 
L 204.234121 413.704625 
L 204.589603 413.597125 
L 204.945085 414.549269 
L 205.300567 414.288197 
L 205.656049 415.255698 
L 206.011531 413.750697 
L 206.367013 413.581768 
L 206.722495 414.687484 
L 207.077977 413.84284 
L 207.433459 415.562842 
L 207.788941 415.992842 
L 208.144423 416.668557 
L 208.499904 414.149983 
L 208.855386 414.764269 
L 209.56635 413.84284 
L 209.921832 414.810341 
L 210.277314 414.103912 
L 210.632796 415.347841 
L 210.988278 414.963912 
L 211.34376 414.318912 
L 211.699242 415.654985 
L 212.054724 413.259268 
L 212.410206 415.255698 
L 212.765688 415.40927 
L 213.12117 413.581768 
L 213.476652 415.670342 
L 213.832134 415.854628 
L 214.187615 415.056055 
L 214.543097 415.393913 
L 215.254061 416.376771 
L 215.609543 416.054271 
L 215.965025 415.992842 
L 216.320507 417.144629 
L 217.031471 416.514985 
L 217.386953 417.006414 
L 217.742435 416.284628 
L 218.097917 416.315342 
L 218.453399 416.8682 
L 218.808881 415.501413 
L 219.164363 416.422842 
L 219.519845 416.7607 
L 219.875326 416.054271 
L 220.230808 415.793199 
L 220.58629 417.282843 
L 220.941772 415.255698 
L 221.297254 418.311773 
L 221.652736 416.514985 
L 222.008218 417.943201 
L 222.3637 415.654985 
L 222.719182 416.023556 
L 223.074664 418.373202 
L 223.430146 415.854628 
L 223.785628 417.497844 
L 224.14111 417.129272 
L 224.496592 417.252129 
L 224.852074 416.530343 
L 225.207556 417.543915 
L 225.563038 417.221415 
L 225.918519 418.158201 
L 226.274001 417.313558 
L 226.629483 418.357844 
L 226.984965 418.265701 
L 227.340447 419.555703 
L 227.695929 415.916056 
L 228.051411 420.139275 
L 228.406893 416.714628 
L 228.762375 416.422842 
L 229.117857 418.787845 
L 229.473339 417.743558 
L 229.828821 418.250344 
L 230.184303 418.449987 
L 230.539785 418.403916 
L 230.895267 419.494274 
L 231.250749 418.572845 
L 231.60623 418.54213 
L 231.961712 419.939632 
L 232.317194 418.050701 
L 232.672676 419.24856 
L 233.028158 419.693917 
L 233.38364 418.956774 
L 233.739122 417.206058 
L 234.094604 420.92249 
L 234.450086 418.496059 
L 234.805568 419.294631 
L 235.16105 418.526773 
L 235.516532 419.478917 
L 235.872014 418.496059 
L 236.227496 418.449987 
L 236.93846 418.695702 
L 237.293942 418.54213 
L 237.649423 421.152847 
L 238.004905 418.741773 
L 238.360387 418.941416 
L 238.715869 419.432846 
L 239.071351 420.768918 
L 239.426833 419.847489 
L 239.782315 420.093203 
L 240.137797 419.35606 
L 240.493279 419.417488 
L 240.848761 418.234987 
L 241.204243 420.861061 
L 241.559725 420.384989 
L 241.915207 420.630704 
L 242.270689 419.617131 
L 242.626171 419.985703 
L 242.981653 419.079631 
L 243.337134 419.878203 
L 243.692616 420.139275 
L 244.048098 418.833916 
L 244.40358 421.122133 
L 244.759062 419.555703 
L 245.114544 419.632489 
L 245.470026 418.741773 
L 245.825508 419.509631 
L 246.18099 421.413919 
L 246.536472 421.721062 
L 246.891954 422.197134 
L 247.247436 419.67856 
L 247.602918 419.402131 
L 247.9584 421.490705 
L 248.313882 421.521419 
L 248.669364 420.338918 
L 249.024846 420.937847 
L 249.735809 420.661418 
L 250.091291 420.077846 
L 250.446773 420.200703 
L 250.802255 421.337133 
L 251.157737 420.431061 
L 251.868701 421.106776 
L 252.224183 420.799633 
L 252.579665 420.031775 
L 252.935147 421.183562 
L 253.290629 420.369632 
L 253.646111 421.02999 
L 254.001593 419.371417 
L 254.357075 419.78606 
L 254.712557 420.615347 
L 255.068038 421.076061 
L 255.42352 419.57106 
L 255.779002 421.060704 
L 256.134484 418.664988 
L 256.489966 419.46356 
L 256.845448 420.92249 
L 257.20093 421.582848 
L 257.556412 421.214276 
L 257.911894 420.492489 
L 258.622858 421.598205 
L 258.97834 420.00106 
L 259.333822 420.799633 
L 259.689304 420.70749 
L 260.044786 420.953204 
L 260.400268 420.891776 
L 260.75575 419.78606 
L 261.111231 420.999276 
L 261.466713 418.879988 
L 261.822195 417.912487 
L 262.177677 419.432846 
L 262.533159 421.444633 
L 262.888641 421.45999 
L 263.244123 422.104991 
L 263.599605 421.106776 
L 263.955087 421.521419 
L 264.310569 420.461775 
L 264.666051 422.16642 
L 265.021533 419.632489 
L 265.377015 421.275705 
L 265.732497 421.828562 
L 266.087979 419.908917 
L 266.443461 421.337133 
L 266.798942 421.122133 
L 267.154424 420.062489 
L 267.509906 421.152847 
L 267.865388 420.354275 
L 268.22087 421.45999 
L 268.931834 418.895345 
L 269.287316 419.801417 
L 269.642798 419.110345 
L 269.99828 419.494274 
L 270.353762 419.202488 
L 270.709244 420.415704 
L 271.064726 419.862846 
L 271.420208 419.770703 
L 271.77569 418.972131 
L 272.131172 419.033559 
L 272.486654 417.835701 
L 272.842135 414.917841 
L 273.197617 413.289982 
L 273.553099 407.961048 
L 273.908581 400.620326 
L 274.264063 382.744594 
L 274.619545 344.274912 
L 274.975027 242.318738 
L 275.330509 78.12 
L 275.685991 122.287188 
L 276.396955 372.301726 
L 276.752437 402.033185 
L 277.107919 411.800338 
L 277.818883 419.448203 
L 278.174365 419.033559 
L 278.529846 420.292846 
L 278.885328 418.803202 
L 279.24081 420.569275 
L 279.951774 422.05892 
L 280.307256 420.968561 
L 280.662738 421.321776 
L 281.01822 422.611777 
L 281.373702 421.383205 
L 281.729184 423.103206 
L 282.084666 422.304634 
L 282.440148 423.041778 
L 282.79563 424.039993 
L 283.506594 422.16642 
L 284.217557 422.59642 
L 284.573039 423.272135 
L 284.928521 422.719277 
L 285.284003 422.442849 
L 285.639485 423.348921 
L 285.994967 423.717493 
L 286.350449 424.408565 
L 286.705931 422.91892 
L 287.061413 424.362493 
L 287.416895 423.640707 
L 287.772377 423.302849 
L 288.127859 424.009279 
L 288.483341 422.903563 
L 288.838823 424.05535 
L 289.194305 423.287492 
L 289.549787 424.239636 
L 289.905269 422.934278 
L 290.26075 422.335348 
L 290.616232 420.630704 
L 290.971714 421.060704 
L 291.327196 422.104991 
L 291.682678 423.748207 
L 292.03816 423.748207 
L 292.749124 425.62178 
L 293.104606 425.683209 
L 293.460088 423.487135 
L 293.81557 424.823208 
L 294.171052 425.161066 
L 294.526534 424.408565 
L 294.882016 424.761779 
L 295.237498 424.009279 
L 295.59298 424.301065 
L 295.948461 425.360709 
L 296.303943 424.777137 
L 296.659425 423.901779 
L 297.014907 425.72928 
L 297.370389 425.176423 
L 297.725871 425.821423 
L 298.081353 424.654279 
L 298.436835 424.27035 
L 298.792317 424.623565 
L 299.147799 424.086065 
L 300.214245 425.437494 
L 300.925209 425.713923 
L 301.280691 424.86928 
L 301.636173 424.823208 
L 301.991654 425.683209 
L 302.347136 425.652495 
L 302.702618 424.086065 
L 303.0581 426.097852 
L 303.413582 425.836781 
L 303.769064 425.437494 
L 304.124546 425.237851 
L 304.480028 424.347136 
L 305.190992 425.790709 
L 305.546474 425.068923 
L 305.901956 425.053565 
L 306.257438 424.731065 
L 306.61292 426.082495 
L 306.968402 424.777137 
L 307.323884 427.142139 
L 307.679365 424.792494 
L 308.034847 425.237851 
L 308.390329 424.807851 
L 308.745811 426.404995 
L 309.101293 425.483566 
L 309.456775 425.959638 
L 309.812257 425.468209 
L 310.167739 425.314637 
L 310.523221 425.591066 
L 310.878703 424.746422 
L 311.589667 424.546779 
L 311.945149 424.838565 
L 312.300631 425.637138 
L 312.656113 425.237851 
L 313.011595 425.161066 
L 313.367077 426.666067 
L 313.722558 425.099637 
L 314.07804 425.775352 
L 314.433522 426.113209 
L 314.789004 424.070707 
L 315.144486 425.759995 
L 316.210932 425.606423 
L 316.566414 426.236067 
L 316.921896 424.516065 
L 317.277378 423.609993 
L 317.63286 424.638922 
L 317.988342 423.302849 
L 318.343824 425.08428 
L 319.054788 425.437494 
L 319.765751 423.287492 
L 320.121233 424.700351 
L 320.476715 423.51785 
L 321.187679 425.161066 
L 321.543161 423.917136 
L 321.898643 424.531422 
L 322.254125 424.285708 
L 322.609607 423.748207 
L 322.965089 424.485351 
L 323.676053 422.765349 
L 324.031535 424.715708 
L 324.742499 423.471778 
L 325.097981 422.964992 
L 325.453462 423.441064 
L 325.808944 423.563921 
L 326.164426 424.546779 
L 326.87539 423.609993 
L 327.230872 423.441064 
L 327.586354 422.627134 
L 327.941836 423.993922 
L 328.297318 423.748207 
L 328.6528 422.627134 
L 329.008282 422.519634 
L 329.363764 421.45999 
L 329.719246 423.087849 
L 330.074728 423.041778 
L 330.43021 423.84035 
L 330.785692 423.164635 
L 331.141173 423.072492 
L 331.496655 423.195349 
L 331.852137 422.05892 
L 332.207619 422.27392 
L 332.563101 421.321776 
L 332.918583 420.70749 
L 333.274065 414.702841 
L 333.629547 406.363904 
L 333.985029 390.407816 
L 334.340511 383.497095 
L 335.762439 419.24856 
L 336.117921 421.813205 
L 336.473403 422.135705 
L 337.184366 424.086065 
L 337.539848 424.039993 
L 337.89533 424.623565 
L 338.250812 423.886421 
L 338.606294 423.94785 
L 338.961776 425.237851 
L 339.67274 424.009279 
L 340.383704 424.469993 
L 341.094668 424.362493 
L 341.45015 423.702136 
L 341.805632 424.654279 
L 342.161114 424.531422 
L 342.516596 424.086065 
L 342.872077 425.268566 
L 343.227559 424.623565 
L 343.583041 424.700351 
L 343.938523 424.485351 
L 344.294005 424.516065 
L 344.649487 426.512496 
L 345.360451 424.05535 
L 346.071415 424.608208 
L 346.426897 424.731065 
L 346.782379 425.744638 
L 347.137861 425.345351 
L 347.848825 425.591066 
L 348.204307 424.700351 
L 348.559788 424.531422 
L 348.91527 424.915351 
L 349.270752 425.022851 
L 349.626234 425.775352 
L 349.981716 425.698566 
L 350.337198 425.268566 
L 350.69268 427.341782 
L 351.048162 425.360709 
L 351.403644 425.560352 
L 351.759126 426.021066 
L 352.114608 425.990352 
L 352.47009 426.32821 
L 352.825572 426.051781 
L 353.181054 426.635353 
L 353.892018 424.823208 
L 354.2475 426.097852 
L 354.602981 425.959638 
L 354.958463 424.684994 
L 355.313945 424.915351 
L 355.669427 423.287492 
L 356.024909 424.285708 
L 356.380391 421.843919 
L 356.735873 421.275705 
L 357.091355 417.497844 
L 357.802319 413.151768 
L 358.157801 411.201409 
L 358.513283 410.448908 
L 358.868765 410.617837 
L 359.224247 410.341408 
L 359.579729 411.877124 
L 360.290692 415.532127 
L 360.646174 419.478917 
L 361.001656 420.983919 
L 361.357138 423.164635 
L 361.71262 423.794279 
L 362.423584 425.422137 
L 362.779066 426.251424 
L 363.134548 425.130351 
L 363.49003 424.485351 
L 363.845512 425.40678 
L 364.200994 424.347136 
L 364.556476 426.021066 
L 364.911958 426.021066 
L 365.26744 425.836781 
L 365.622922 426.251424 
L 365.978404 425.114994 
L 366.333885 425.544995 
L 366.689367 425.498923 
L 367.044849 427.403211 
L 367.400331 426.159281 
L 367.755813 426.082495 
L 368.111295 426.742853 
L 368.466777 426.159281 
L 368.822259 426.635353 
L 369.177741 426.404995 
L 369.533223 426.527853 
L 369.888705 425.575709 
L 370.244187 425.038208 
L 370.599669 420.123918 
L 370.955151 411.078551 
L 371.310633 410.049622 
L 371.666115 417.175343 
L 372.021596 418.388559 
L 372.377078 424.408565 
L 372.73256 426.282138 
L 373.088042 425.237851 
L 373.443524 425.790709 
L 374.154488 425.560352 
L 374.50997 426.22071 
L 374.865452 426.497138 
L 375.220934 427.111425 
L 375.576416 426.727496 
L 375.931898 427.019282 
L 376.28738 426.067138 
L 376.642862 427.111425 
L 376.998344 425.161066 
L 377.353826 426.911782 
L 377.709308 425.483566 
L 378.420271 426.404995 
L 378.775753 426.22071 
L 379.131235 426.635353 
L 379.486717 426.159281 
L 379.842199 427.311068 
L 380.197681 425.08428 
L 380.553163 426.189995 
L 380.908645 425.40678 
L 381.264127 425.944281 
L 381.619609 427.280353 
L 381.975091 426.681424 
L 382.330573 426.466424 
L 382.686055 425.759995 
L 383.041537 427.479997 
L 383.7525 425.898209 
L 384.107982 425.974995 
L 384.463464 426.97321 
L 384.818946 425.422137 
L 385.174428 427.08071 
L 385.52991 425.268566 
L 385.885392 426.174638 
L 386.240874 426.389638 
L 386.951838 425.268566 
L 387.30732 426.389638 
L 387.662802 426.911782 
L 388.018284 426.389638 
L 388.373766 426.666067 
L 388.729248 425.836781 
L 389.08473 426.86571 
L 389.440212 427.280353 
L 389.795693 425.314637 
L 390.151175 425.62178 
L 390.506657 425.667852 
L 390.862139 425.19178 
L 391.217621 426.282138 
L 392.284067 420.661418 
L 392.639549 420.00106 
L 392.995031 418.603559 
L 393.350513 416.207842 
L 393.705995 417.129272 
L 394.061477 420.185346 
L 394.416959 421.966777 
L 394.772441 421.552133 
L 395.483404 426.036424 
L 395.838886 426.358924 
L 396.194368 425.544995 
L 396.905332 426.896424 
L 397.260814 427.049996 
L 397.616296 425.790709 
L 398.32726 427.526068 
L 398.682742 426.666067 
L 399.038224 426.43571 
L 399.393706 425.544995 
L 399.749188 425.790709 
L 400.10467 427.341782 
L 400.460152 427.694997 
L 401.171115 425.62178 
L 401.526597 425.683209 
L 401.882079 425.314637 
L 402.593043 425.775352 
L 402.948525 424.807851 
L 403.304007 427.111425 
L 403.659489 425.882852 
L 404.370453 425.606423 
L 404.725935 426.573924 
L 405.436899 426.082495 
L 405.792381 427.280353 
L 406.147863 426.896424 
L 406.503345 426.75821 
L 407.214308 424.301065 
L 407.56979 426.082495 
L 407.925272 424.823208 
L 408.280754 426.742853 
L 408.636236 426.297495 
L 408.991718 426.65071 
L 409.3472 425.544995 
L 410.058164 426.097852 
L 410.413646 425.498923 
L 410.769128 426.497138 
L 411.12461 425.72928 
L 411.480092 425.713923 
L 411.835574 426.312852 
L 412.191056 426.343567 
L 412.546538 425.468209 
L 412.902019 425.606423 
L 413.257501 426.297495 
L 413.612983 424.992137 
L 413.968465 426.497138 
L 414.323947 425.314637 
L 414.679429 425.575709 
L 415.034911 424.469993 
L 415.745875 426.051781 
L 416.101357 425.759995 
L 416.456839 426.097852 
L 416.812321 425.959638 
L 417.167803 424.731065 
L 417.523285 425.959638 
L 417.878767 425.759995 
L 418.234249 424.86928 
L 418.589731 426.159281 
L 418.945212 425.575709 
L 419.300694 425.836781 
L 419.656176 426.850353 
L 420.011658 425.329994 
L 420.36714 425.237851 
L 420.722622 424.930708 
L 421.433586 426.404995 
L 421.789068 425.913566 
L 422.14455 424.654279 
L 422.500032 425.72928 
L 422.855514 425.529637 
L 423.210996 424.961423 
L 423.566478 423.51785 
L 423.92196 425.821423 
L 424.277442 425.529637 
L 424.632923 424.97678 
L 424.988405 425.283923 
L 425.343887 425.882852 
L 425.699369 425.744638 
L 426.054851 425.360709 
L 426.410333 426.481781 
L 426.765815 426.850353 
L 427.121297 426.358924 
L 427.476779 426.527853 
L 427.832261 426.251424 
L 428.187743 425.51428 
L 428.543225 426.742853 
L 428.898707 425.08428 
L 429.254189 424.347136 
L 429.609671 426.619996 
L 429.965153 426.497138 
L 430.320635 424.562136 
L 430.676116 426.635353 
L 431.031598 427.433925 
L 431.38708 424.731065 
L 431.742562 426.97321 
L 432.098044 425.698566 
L 432.453526 426.282138 
L 432.809008 425.068923 
L 433.16449 425.990352 
L 433.519972 427.449282 
L 433.875454 426.834996 
L 434.230936 425.821423 
L 434.9419 426.604638 
L 435.297382 426.097852 
L 435.652864 426.86571 
L 436.008346 426.404995 
L 436.363827 426.466424 
L 436.719309 426.005709 
L 437.074791 425.114994 
L 437.430273 425.114994 
L 437.785755 426.589281 
L 438.141237 426.681424 
L 438.496719 426.051781 
L 438.852201 426.742853 
L 439.207683 426.374281 
L 439.563165 427.218925 
L 439.918647 425.898209 
L 440.274129 425.498923 
L 440.629611 426.881067 
L 440.985093 426.451067 
L 441.340575 424.439279 
L 441.696057 425.759995 
L 442.051539 425.790709 
L 442.40702 425.237851 
L 442.762502 425.867495 
L 443.117984 425.591066 
L 443.473466 426.512496 
L 444.18443 425.698566 
L 444.539912 426.021066 
L 444.895394 426.788924 
L 445.606358 425.898209 
L 446.317322 426.834996 
L 446.672804 426.65071 
L 447.028286 425.928924 
L 447.383768 427.003925 
L 447.73925 425.836781 
L 448.094731 425.959638 
L 448.450213 424.930708 
L 448.805695 426.189995 
L 449.161177 425.114994 
L 449.516659 427.034639 
L 449.872141 426.358924 
L 450.227623 426.22071 
L 450.583105 426.604638 
L 450.938587 426.297495 
L 451.294069 425.713923 
L 451.649551 425.437494 
L 452.360515 426.067138 
L 452.715997 425.145708 
L 453.071479 425.053565 
L 453.782443 425.882852 
L 454.137924 425.698566 
L 454.493406 427.096068 
L 454.848888 425.544995 
L 455.20437 425.867495 
L 455.915334 425.498923 
L 456.270816 425.452852 
L 456.98178 425.544995 
L 457.337262 423.809636 
L 457.692744 426.573924 
L 458.048226 426.527853 
L 458.403708 425.391423 
L 458.75919 425.591066 
L 459.114672 426.712139 
L 459.470154 425.652495 
L 459.825635 425.007494 
L 460.181117 426.005709 
L 460.536599 424.838565 
L 461.247563 426.358924 
L 461.603045 424.208922 
L 461.958527 424.746422 
L 462.314009 422.350706 
L 462.669491 422.995706 
L 463.024973 421.214276 
L 463.735937 409.020692 
L 464.446901 393.709605 
L 464.802383 386.599241 
L 465.157865 383.604595 
L 466.22431 404.06033 
L 466.935274 417.758915 
L 467.290756 422.350706 
L 467.646238 424.393208 
L 468.00172 425.237851 
L 468.357202 425.652495 
L 468.712684 426.497138 
L 469.068166 425.852138 
L 469.423648 426.32821 
L 469.77913 426.005709 
L 470.490094 426.942496 
L 471.201058 426.97321 
L 471.556539 425.990352 
L 471.912021 425.72928 
L 472.267503 428.769998 
L 472.622985 427.096068 
L 472.978467 428.171069 
L 473.333949 429.737499 
L 473.689431 428.232497 
L 474.044913 427.89464 
L 474.400395 427.848568 
L 474.755877 427.433925 
L 475.111359 426.788924 
L 475.466841 428.124997 
L 475.822323 427.587497 
L 476.177805 428.570355 
L 476.533287 427.295711 
L 476.888769 427.848568 
L 477.599732 427.664282 
L 477.955214 427.142139 
L 478.310696 427.956068 
L 478.666178 427.817854 
L 479.02166 427.126782 
L 479.732624 428.447497 
L 480.088106 428.094283 
L 480.443588 428.171069 
L 480.79907 427.694997 
L 481.154552 425.744638 
L 481.510034 426.251424 
L 481.865516 424.070707 
L 482.220998 418.449987 
L 482.57648 410.587122 
L 482.931962 395.644607 
L 483.287443 394.400677 
L 483.642925 407.822834 
L 483.998407 409.158907 
L 484.353889 409.819264 
L 484.709371 419.724632 
L 485.420335 428.785355 
L 486.131299 427.956068 
L 486.486781 427.003925 
L 486.842263 427.188211 
L 487.197745 427.510711 
L 487.553227 428.631783 
L 487.908709 428.877498 
L 488.264191 429.368927 
L 488.619673 429.445713 
L 488.975154 429.03107 
L 489.330636 428.278569 
L 489.686118 429.46107 
L 490.0416 429.844999 
L 490.397082 429.261427 
L 490.752564 429.56857 
L 491.108046 429.261427 
L 491.463528 429.491784 
L 491.81901 428.723926 
L 492.174492 429.67607 
L 492.529974 428.554998 
L 493.240938 429.35357 
L 493.59642 429.307498 
L 493.951902 429.491784 
L 494.307384 430.336428 
L 494.662866 428.140354 
L 495.018347 429.061784 
L 495.373829 428.447497 
L 495.729311 429.752856 
L 496.084793 429.507141 
L 496.795757 428.339997 
L 497.151239 428.769998 
L 497.506721 428.739284 
L 497.862203 429.691427 
L 498.217685 428.938927 
L 498.573167 429.322856 
L 498.928649 427.89464 
L 499.284131 428.938927 
L 499.639613 429.614642 
L 499.995095 428.355355 
L 500.350577 428.677855 
L 500.706058 428.708569 
L 501.06154 429.814285 
L 501.417022 428.048211 
L 502.127986 429.276784 
L 502.483468 428.171069 
L 502.83895 428.186426 
L 503.194432 429.261427 
L 503.549914 429.123212 
L 503.905396 428.21714 
L 504.260878 427.863925 
L 504.61636 428.862141 
L 504.971842 428.754641 
L 505.682806 429.599284 
L 506.038288 428.140354 
L 506.39377 429.384284 
L 506.749251 429.03107 
L 507.104733 429.553213 
L 507.460215 429.691427 
L 507.815697 429.399641 
L 508.526661 429.307498 
L 508.882143 428.601069 
L 509.237625 428.923569 
L 509.593107 428.816069 
L 509.948589 428.447497 
L 510.304071 428.616426 
L 510.659553 428.43214 
L 511.015035 428.601069 
L 511.370517 428.570355 
L 512.081481 429.153927 
L 512.436962 428.769998 
L 512.792444 428.078926 
L 513.503408 429.430356 
L 513.85889 428.309283 
L 514.214372 429.445713 
L 514.569854 427.771783 
L 514.925336 428.892855 
L 515.280818 428.831426 
L 515.6363 429.737499 
L 515.991782 428.094283 
L 516.347264 428.908212 
L 516.702746 429.261427 
L 517.058228 429.153927 
L 517.41371 429.261427 
L 517.769192 429.798927 
L 518.124674 428.662498 
L 518.480155 429.046427 
L 518.835637 428.339997 
L 519.191119 429.752856 
L 519.546601 428.769998 
L 520.257565 425.744638 
L 520.613047 425.698566 
L 522.034975 428.048211 
L 522.390457 429.46107 
L 522.745939 428.048211 
L 523.101421 429.860356 
L 523.456903 429.24607 
L 523.812385 428.370712 
L 524.167866 429.875713 
L 524.523348 428.21714 
L 525.234312 429.614642 
L 525.589794 429.737499 
L 525.945276 429.67607 
L 526.300758 430.367142 
L 526.65624 429.875713 
L 527.011722 429.123212 
L 527.367204 430.797143 
L 527.722686 429.384284 
L 528.078168 429.307498 
L 528.43365 430.566785 
L 529.144614 429.199998 
L 529.500096 429.107855 
L 529.855577 429.537856 
L 530.211059 429.338213 
L 530.922023 429.937142 
L 531.277505 429.215355 
L 531.632987 428.923569 
L 531.988469 427.986783 
L 532.699433 428.800712 
L 533.054915 428.800712 
L 533.765879 426.22071 
L 534.121361 426.159281 
L 534.476843 424.086065 
L 534.832325 424.070707 
L 535.187807 422.995706 
L 535.543289 422.719277 
L 535.89877 421.843919 
L 536.254252 422.719277 
L 536.609734 422.70392 
L 536.965216 423.179992 
L 537.320698 421.936062 
L 537.67618 422.872849 
L 538.031662 423.441064 
L 538.387144 423.210706 
L 538.742626 424.577494 
L 539.098108 426.681424 
L 539.45359 427.280353 
L 539.809072 428.800712 
L 540.164554 428.631783 
L 540.520036 427.418568 
L 540.875518 430.106071 
L 541.231 429.13857 
L 541.586481 429.153927 
L 541.941963 430.044642 
L 542.297445 430.106071 
L 542.652927 429.952499 
L 543.008409 430.336428 
L 543.363891 430.198214 
L 543.719373 430.182856 
L 544.074855 429.46107 
L 544.430337 430.167499 
L 544.785819 429.983213 
L 545.141301 430.075356 
L 545.496783 429.261427 
L 545.852265 428.816069 
L 546.207747 430.182856 
L 546.563229 429.338213 
L 546.918711 430.075356 
L 547.274193 428.938927 
L 547.629674 429.921785 
L 547.985156 429.261427 
L 548.340638 429.153927 
L 548.69612 430.121428 
L 549.051602 429.814285 
L 549.407084 428.493569 
L 549.762566 429.67607 
L 550.118048 430.121428 
L 550.47353 429.860356 
L 550.829012 430.090713 
L 551.184494 430.92 
L 551.539976 429.35357 
L 551.895458 430.029285 
L 552.25094 430.213571 
L 552.606422 428.631783 
L 552.961904 428.616426 
L 553.317385 429.937142 
L 553.672867 429.67607 
L 554.028349 429.829642 
L 554.383831 430.904643 
L 554.739313 428.984998 
L 555.094795 429.660713 
L 555.450277 429.691427 
L 555.805759 430.643571 
L 556.161241 430.075356 
L 556.872205 429.583927 
L 557.227687 430.274999 
L 557.583169 429.860356 
L 557.938651 428.923569 
L 558.649615 430.244285 
L 559.005097 429.829642 
L 559.360578 430.797143 
L 559.71606 429.583927 
L 560.071542 430.904643 
L 560.427024 429.276784 
L 560.782506 429.78357 
L 561.137988 429.99857 
L 561.49347 428.969641 
L 561.848952 429.937142 
L 562.204434 429.061784 
L 562.559916 430.689643 
L 562.915398 428.984998 
L 563.27088 428.554998 
L 563.626362 428.723926 
L 563.981844 430.090713 
L 564.337326 428.800712 
L 564.692808 428.524283 
L 565.048289 428.877498 
L 565.403771 428.723926 
L 565.759253 429.46107 
L 566.114735 428.647141 
L 566.470217 426.512496 
L 566.825699 427.326425 
L 567.181181 427.67964 
L 567.536663 425.852138 
L 567.892145 424.777137 
L 568.247627 425.913566 
L 568.603109 423.256778 
L 568.958591 424.884637 
L 569.314073 422.227848 
L 569.669555 421.413919 
L 570.380519 422.335348 
L 570.736001 418.204273 
L 571.091482 417.989273 
L 571.446964 416.315342 
L 571.802446 416.944986 
L 572.157928 420.354275 
L 572.51341 420.231418 
L 572.868892 421.736419 
L 573.224374 421.659633 
L 573.579856 425.053565 
L 573.935338 426.957853 
L 574.29082 426.819639 
L 574.646302 426.988567 
L 575.001784 427.725711 
L 575.357266 427.556782 
L 575.712748 428.524283 
L 576.06823 428.923569 
L 576.423712 429.123212 
L 576.779193 428.201783 
L 577.134675 429.368927 
L 577.490157 429.430356 
L 577.845639 429.706784 
L 578.201121 429.583927 
L 578.556603 429.13857 
L 578.912085 429.292141 
L 579.267567 429.906428 
L 579.623049 428.677855 
L 579.978531 429.153927 
L 580.334013 430.658928 
L 580.689495 428.816069 
L 581.044977 428.984998 
L 581.400459 428.984998 
L 581.755941 429.722142 
L 582.111423 430.044642 
L 582.466905 428.662498 
L 582.822386 427.833211 
L 583.177868 428.048211 
L 583.53335 429.768213 
L 583.888832 429.338213 
L 584.244314 429.645356 
L 584.599796 428.339997 
L 584.955278 430.459285 
L 585.31076 429.645356 
L 585.666242 429.368927 
L 586.021724 429.860356 
L 586.377206 429.13857 
L 586.732688 428.984998 
L 587.08817 429.35357 
L 587.443652 428.677855 
L 587.799134 428.386069 
L 588.154616 429.798927 
L 588.510097 429.261427 
L 588.865579 429.215355 
L 589.221061 429.553213 
L 589.576543 429.307498 
L 589.932025 428.508926 
L 590.287507 428.309283 
L 590.642989 429.077141 
L 590.998471 428.21714 
L 591.353953 429.13857 
L 591.709435 428.263212 
L 592.064917 429.921785 
L 592.420399 429.414998 
L 592.775881 428.662498 
L 593.131363 429.399641 
L 593.842327 428.140354 
L 594.197808 428.908212 
L 594.55329 428.309283 
L 594.908772 428.186426 
L 595.619736 427.142139 
L 595.975218 427.295711 
L 596.3307 428.984998 
L 596.686182 427.848568 
L 597.041664 428.954284 
L 597.397146 428.355355 
L 597.752628 428.877498 
L 598.10811 427.602854 
L 598.463592 428.309283 
L 598.819074 427.618211 
L 599.174556 428.800712 
L 599.530038 428.493569 
L 599.88552 429.476427 
L 600.241001 428.877498 
L 600.596483 429.476427 
L 600.951965 427.956068 
L 601.307447 428.370712 
L 601.662929 429.13857 
L 602.018411 427.879283 
L 602.373893 428.493569 
L 602.729375 428.263212 
L 603.084857 427.234282 
L 603.440339 429.061784 
L 603.795821 429.13857 
L 604.151303 427.648925 
L 604.506785 428.048211 
L 604.862267 428.017497 
L 605.217749 427.756425 
L 606.995158 428.43214 
L 607.35064 428.816069 
L 607.706122 428.708569 
L 608.061604 428.401426 
L 608.417086 429.629999 
L 608.772568 427.848568 
L 609.12805 429.107855 
L 609.839014 426.742853 
L 610.194496 427.003925 
L 610.549978 428.631783 
L 610.90546 428.263212 
L 611.260942 428.508926 
L 611.616424 428.570355 
L 611.971905 429.230713 
L 612.327387 428.524283 
L 612.682869 428.339997 
L 613.038351 428.585712 
L 613.393833 428.263212 
L 613.749315 429.645356 
L 614.104797 428.247854 
L 614.460279 428.877498 
L 614.815761 428.508926 
L 615.171243 428.570355 
L 615.526725 429.261427 
L 615.882207 428.601069 
L 616.237689 428.739284 
L 616.593171 428.554998 
L 616.948653 429.645356 
L 617.304135 429.78357 
L 617.659616 429.015712 
L 618.015098 429.906428 
L 618.37058 428.017497 
L 618.726062 427.771783 
L 619.081544 428.386069 
L 619.437026 427.725711 
L 619.792508 428.355355 
L 620.14799 427.495354 
L 620.503472 428.155711 
L 620.858954 427.848568 
L 621.214436 428.094283 
L 621.569918 427.879283 
L 621.9254 429.322856 
L 622.280882 428.739284 
L 622.636364 428.862141 
L 622.636364 428.862141 
" clip-path="url(#p09140c557d)" style="fill: none; stroke: #000000; stroke-width: 1.5; stroke-linecap: square"/>
   </g>
   <g id="patch_3">
    <path d="M 90 448.56 
L 90 60.48 
" style="fill: none; stroke: #000000; stroke-width: 0.8; stroke-linejoin: miter; stroke-linecap: square"/>
   </g>
   <g id="patch_4">
    <path d="M 648 448.56 
L 648 60.48 
" style="fill: none; stroke: #000000; stroke-width: 0.8; stroke-linejoin: miter; stroke-linecap: square"/>
   </g>
   <g id="patch_5">
    <path d="M 90 448.56 
L 648 448.56 
" style="fill: none; stroke: #000000; stroke-width: 0.8; stroke-linejoin: miter; stroke-linecap: square"/>
   </g>
   <g id="patch_6">
    <path d="M 90 60.48 
L 648 60.48 
" style="fill: none; stroke: #000000; stroke-width: 0.8; stroke-linejoin: miter; stroke-linecap: square"/>
   </g>
   <g id="text_16">
    <!-- Difraccin de rayos x para el MnO2 -->
    <g transform="translate(263.225625 54.48)scale(0.12 -0.12)">
     <defs>
      <path id="DejaVuSans-44" d="M 1259 4147 
L 1259 519 
L 2022 519 
Q 2988 519 3436 956 
Q 3884 1394 3884 2338 
Q 3884 3275 3436 3711 
Q 2988 4147 2022 4147 
L 1259 4147 
z
M 628 4666 
L 1925 4666 
Q 3281 4666 3915 4102 
Q 4550 3538 4550 2338 
Q 4550 1131 3912 565 
Q 3275 0 1925 0 
L 628 0 
L 628 4666 
z
" transform="scale(0.015625)"/>
      <path id="DejaVuSans-66" d="M 2375 4863 
L 2375 4384 
L 1825 4384 
Q 1516 4384 1395 4259 
Q 1275 4134 1275 3809 
L 1275 3500 
L 2222 3500 
L 2222 3053 
L 1275 3053 
L 1275 0 
L 697 0 
L 697 3053 
L 147 3053 
L 147 3500 
L 697 3500 
L 697 3744 
Q 697 4328 969 4595 
Q 1241 4863 1831 4863 
L 2375 4863 
z
" transform="scale(0.015625)"/>
      <path id="DejaVuSans-72" d="M 2631 2963 
Q 2534 3019 2420 3045 
Q 2306 3072 2169 3072 
Q 1681 3072 1420 2755 
Q 1159 2438 1159 1844 
L 1159 0 
L 581 0 
L 581 3500 
L 1159 3500 
L 1159 2956 
Q 1341 3275 1631 3429 
Q 1922 3584 2338 3584 
Q 2397 3584 2469 3576 
Q 2541 3569 2628 3553 
L 2631 2963 
z
" transform="scale(0.015625)"/>
      <path id="DejaVuSans-63" d="M 3122 3366 
L 3122 2828 
Q 2878 2963 2633 3030 
Q 2388 3097 2138 3097 
Q 1578 3097 1268 2742 
Q 959 2388 959 1747 
Q 959 1106 1268 751 
Q 1578 397 2138 397 
Q 2388 397 2633 464 
Q 2878 531 3122 666 
L 3122 134 
Q 2881 22 2623 -34 
Q 2366 -91 2075 -91 
Q 1284 -91 818 406 
Q 353 903 353 1747 
Q 353 2603 823 3093 
Q 1294 3584 2113 3584 
Q 2378 3584 2631 3529 
Q 2884 3475 3122 3366 
z
" transform="scale(0.015625)"/>
      <path id="DejaVuSans-f3" d="M 1959 3097 
Q 1497 3097 1228 2736 
Q 959 2375 959 1747 
Q 959 1119 1226 758 
Q 1494 397 1959 397 
Q 2419 397 2687 759 
Q 2956 1122 2956 1747 
Q 2956 2369 2687 2733 
Q 2419 3097 1959 3097 
z
M 1959 3584 
Q 2709 3584 3137 3096 
Q 3566 2609 3566 1747 
Q 3566 888 3137 398 
Q 2709 -91 1959 -91 
Q 1206 -91 779 398 
Q 353 888 353 1747 
Q 353 2609 779 3096 
Q 1206 3584 1959 3584 
z
M 2394 5119 
L 3016 5119 
L 1997 3944 
L 1519 3944 
L 2394 5119 
z
" transform="scale(0.015625)"/>
      <path id="DejaVuSans-20" transform="scale(0.015625)"/>
      <path id="DejaVuSans-79" d="M 2059 -325 
Q 1816 -950 1584 -1140 
Q 1353 -1331 966 -1331 
L 506 -1331 
L 506 -850 
L 844 -850 
Q 1081 -850 1212 -737 
Q 1344 -625 1503 -206 
L 1606 56 
L 191 3500 
L 800 3500 
L 1894 763 
L 2988 3500 
L 3597 3500 
L 2059 -325 
z
" transform="scale(0.015625)"/>
      <path id="DejaVuSans-78" d="M 3513 3500 
L 2247 1797 
L 3578 0 
L 2900 0 
L 1881 1375 
L 863 0 
L 184 0 
L 1544 1831 
L 300 3500 
L 978 3500 
L 1906 2253 
L 2834 3500 
L 3513 3500 
z
" transform="scale(0.015625)"/>
      <path id="DejaVuSans-70" d="M 1159 525 
L 1159 -1331 
L 581 -1331 
L 581 3500 
L 1159 3500 
L 1159 2969 
Q 1341 3281 1617 3432 
Q 1894 3584 2278 3584 
Q 2916 3584 3314 3078 
Q 3713 2572 3713 1747 
Q 3713 922 3314 415 
Q 2916 -91 2278 -91 
Q 1894 -91 1617 61 
Q 1341 213 1159 525 
z
M 3116 1747 
Q 3116 2381 2855 2742 
Q 2594 3103 2138 3103 
Q 1681 3103 1420 2742 
Q 1159 2381 1159 1747 
Q 1159 1113 1420 752 
Q 1681 391 2138 391 
Q 2594 391 2855 752 
Q 3116 1113 3116 1747 
z
" transform="scale(0.015625)"/>
      <path id="DejaVuSans-4d" d="M 628 4666 
L 1569 4666 
L 2759 1491 
L 3956 4666 
L 4897 4666 
L 4897 0 
L 4281 0 
L 4281 4097 
L 3078 897 
L 2444 897 
L 1241 4097 
L 1241 0 
L 628 0 
L 628 4666 
z
" transform="scale(0.015625)"/>
      <path id="DejaVuSans-4f" d="M 2522 4238 
Q 1834 4238 1429 3725 
Q 1025 3213 1025 2328 
Q 1025 1447 1429 934 
Q 1834 422 2522 422 
Q 3209 422 3611 934 
Q 4013 1447 4013 2328 
Q 4013 3213 3611 3725 
Q 3209 4238 2522 4238 
z
M 2522 4750 
Q 3503 4750 4090 4092 
Q 4678 3434 4678 2328 
Q 4678 1225 4090 567 
Q 3503 -91 2522 -91 
Q 1538 -91 948 565 
Q 359 1222 359 2328 
Q 359 3434 948 4092 
Q 1538 4750 2522 4750 
z
" transform="scale(0.015625)"/>
     </defs>
     <use xlink:href="#DejaVuSans-44"/>
     <use xlink:href="#DejaVuSans-69" x="77.001953"/>
     <use xlink:href="#DejaVuSans-66" x="104.785156"/>
     <use xlink:href="#DejaVuSans-72" x="139.990234"/>
     <use xlink:href="#DejaVuSans-61" x="181.103516"/>
     <use xlink:href="#DejaVuSans-63" x="242.382812"/>
     <use xlink:href="#DejaVuSans-63" x="297.363281"/>
     <use xlink:href="#DejaVuSans-69" x="352.34375"/>
     <use xlink:href="#DejaVuSans-f3" x="380.126953"/>
     <use xlink:href="#DejaVuSans-6e" x="441.308594"/>
     <use xlink:href="#DejaVuSans-20" x="504.6875"/>
     <use xlink:href="#DejaVuSans-64" x="536.474609"/>
     <use xlink:href="#DejaVuSans-65" x="599.951172"/>
     <use xlink:href="#DejaVuSans-20" x="661.474609"/>
     <use xlink:href="#DejaVuSans-72" x="693.261719"/>
     <use xlink:href="#DejaVuSans-61" x="734.375"/>
     <use xlink:href="#DejaVuSans-79" x="795.654297"/>
     <use xlink:href="#DejaVuSans-6f" x="854.833984"/>
     <use xlink:href="#DejaVuSans-73" x="916.015625"/>
     <use xlink:href="#DejaVuSans-20" x="968.115234"/>
     <use xlink:href="#DejaVuSans-78" x="999.902344"/>
     <use xlink:href="#DejaVuSans-20" x="1059.082031"/>
     <use xlink:href="#DejaVuSans-70" x="1090.869141"/>
     <use xlink:href="#DejaVuSans-61" x="1154.345703"/>
     <use xlink:href="#DejaVuSans-72" x="1215.625"/>
     <use xlink:href="#DejaVuSans-61" x="1256.738281"/>
     <use xlink:href="#DejaVuSans-20" x="1318.017578"/>
     <use xlink:href="#DejaVuSans-65" x="1349.804688"/>
     <use xlink:href="#DejaVuSans-6c" x="1411.328125"/>
     <use xlink:href="#DejaVuSans-20" x="1439.111328"/>
     <use xlink:href="#DejaVuSans-4d" x="1470.898438"/>
     <use xlink:href="#DejaVuSans-6e" x="1557.177734"/>
     <use xlink:href="#DejaVuSans-4f" x="1620.556641"/>
     <use xlink:href="#DejaVuSans-32" x="1699.267578"/>
    </g>
   </g>
  </g>
 </g>
 <defs>
  <clipPath id="p09140c557d">
   <rect x="90" y="60.48" width="558" height="388.08"/>
  </clipPath>
 </defs>
</svg>
